# xmcd CD database file
#
# Track frame offsets:
#	150
#	17342
#	36265
#	54252
#	78602
#	95780
#	116005
#	142980
#	167792
#	187092
#	203145
#	220417
#
# Disc length: 3357 seconds
#
# Revision: 0
# Processed by: cddbd v1.5.2PL0 Copyright (c) Steve Scherf et al.
# Submitted via: CDex 1.70beta2
#
DISCID=a90d1b0c
DTITLE=Various Artist - Mellow Vibes
DYEAR=2006
DGENRE=Jazz
TTITLE0=in search of - Adrian Evans
TTITLE1=Beautiful - Nneka
TTITLE2=Flowers - Steph Pockets
TTITLE3=Yeah - Havana
TTITLE4=WITH A LITTLE HELP FROM MY FRIENDS - ANDRE' OREFJARD
TTITLE5=right now - KIM HILL
TTITLE6=butterfly - natalie williams
TTITLE7=Nappy(Waiwan Remix) - Alison Crockett
TTITLE8=My Crew Deep - Steph Pockets
TTITLE9=Tangled - Havana
TTITLE10=Just Thinking of You(Kaycee Remix) - Thursday Love feat. Sienna
TTITLE11=STAY - N'DAMBI
EXTD=YEAR: 2006
EXTT0=
EXTT1=
EXTT2=
EXTT3=
EXTT4=
EXTT5=
EXTT6=
EXTT7=
EXTT8=
EXTT9=
EXTT10=
EXTT11=
PLAYORDER=
